<svg xmlns="http://www.w3.org/2000/svg" fill="#007A2F" width="166px" height="166px" viewBox="0 0 24.00 24.00" stroke="#007A2F" stroke-width="0.00024000000000000003">

<g id="SVGRepo_bgCarrier" stroke-width="0"/>

<g id="SVGRepo_tracerCarrier" stroke-linecap="round" stroke-linejoin="round"/>

<g id="SVGRepo_iconCarrier"> <g id="Money_Check_1" data-name="Money Check 1"> <g> <path d="M19.437,18.218H4.563a2.5,2.5,0,0,1-2.5-2.5V8.282a2.5,2.5,0,0,1,2.5-2.5H19.437a2.5,2.5,0,0,1,2.5,2.5v7.436A2.5,2.5,0,0,1,19.437,18.218ZM4.563,6.782a1.5,1.5,0,0,0-1.5,1.5v7.436a1.5,1.5,0,0,0,1.5,1.5H19.437a1.5,1.5,0,0,0,1.5-1.5V8.282a1.5,1.5,0,0,0-1.5-1.5Z"/> <path d="M12,12.786H5.064a.5.5,0,0,1,0-1H12a.5.5,0,0,1,0,1Z"/> <path d="M14,15.714H5.064a.5.5,0,1,1,0-1H14a.5.5,0,0,1,0,1Z"/> <rect x="15.436" y="8.283" width="4" height="2" rx="0.5"/> </g> </g> </g>

</svg>